# xmcd
#
# Track frame offsets:
#	183
#	11200
#	26618
#	36838
#	50368
#	66293
#	77918
#	89433
#	100530
#	112338
#	129003
#	142168
#	151563
#	164975
#	176983
#	190393
#	204668
#	216040
#	228545
#	239973
#
# Disc length: 3439 seconds
#
# Revision: 0
# Processed by: cddbd v1.5.2PL0 Copyright (c) Steve Scherf et al.
# Submitted via: VUPlayer 2.49
#
DISCID=2a0d6d14
DTITLE=Various Artist - 20 Country Love Songs
DYEAR=1988
DGENRE=Country
TTITLE0=Glen Campbell - It's only make believe =1970=
TTITLE1=Crystal Gayle - When I dream =1978=
TTITLE2=Willie Nelson - There'll be no teardrops tonight =1975=
TTITLE3=John Stewart - July, you're a woman =1969=
TTITLE4=Juice Newton - Come to me =1977=
TTITLE5=Wayne Newton - The summer wind =1965=
TTITLE6=Crystal Gayle - Don't it make my brown eyes blue =1977=
TTITLE7=Bobby Darin - You're the reason I'm living =1972=
TTITLE8=Billie Joe Spears - Misty blue =1976=
TTITLE9=Tenessee Ernie Ford and Glen Campbell - For the good times =1975=
TTITLE10=Dr. Hook - Sharing the night together =1978=
TTITLE11=Glen Campbell and Bobbie Gentry - Let it be me =1968=
TTITLE12=Slim Whitman - I'll take you home again Kathleen =1967=
TTITLE13=Wanda Jackson - Stand by your man =1970=
TTITLE14=Paul Anka - It doesn't matter anymore =1978=
TTITLE15=Tenessee Ernie Ford - Give me your word =1964=
TTITLE16=Glen Campbell - Everything a man could ever need =1970=
TTITLE17=Jean Shepard - Think I'll go somewhere and cry myself to sleep =1975=
TTITLE18=Sony James - The minute you're gone =1972=
TTITLE19=Crystal Gayle - We must believe in magic =1977=
EXTD=
EXTT0=
EXTT1=
EXTT2=
EXTT3=
EXTT4=
EXTT5=
EXTT6=
EXTT7=
EXTT8=
EXTT9=
EXTT10=
EXTT11=
EXTT12=
EXTT13=
EXTT14=
EXTT15=
EXTT16=
EXTT17=
EXTT18=
EXTT19=
PLAYORDER=
